<svg width="144" height="144" viewBox="0 0 144 144" fill="none" xmlns="http://www.w3.org/2000/svg">
<rect width="144" height="144" rx="16" fill="white"/>
<path fill-rule="evenodd" clip-rule="evenodd" d="M98.8433 30C98.8433 28.8954 99.7387 28 100.843 28H111.961C113.065 28 113.961 28.8954 113.961 30V63.2738H116.48C117.872 63.2738 119 64.4018 119 65.7934C119 67.1849 117.872 68.313 116.48 68.313H112.012C111.995 68.3134 111.978 68.3136 111.961 68.3136H100.843C100.835 68.3136 100.827 68.3135 100.819 68.3134C100.81 68.3133 100.801 68.3132 100.792 68.313H66.0884C64.6969 68.313 63.5688 67.1849 63.5688 65.7934C63.5688 64.4018 64.6969 63.2738 66.0884 63.2738H76.6707V42.094C76.6707 40.9894 77.5661 40.094 78.6707 40.094H89.7883C90.8929 40.094 91.7883 40.9894 91.7883 42.094V63.2738H98.8433V30Z" fill="#003974"/>
<mask id="path-3-outside-1_1206:1721" maskUnits="userSpaceOnUse" x="20" y="38.6685" width="76" height="78" fill="black">
<rect fill="white" x="20" y="38.6685" width="76" height="78"/>
<path fill-rule="evenodd" clip-rule="evenodd" d="M57.9948 77.983C67.4705 77.983 75.152 70.3014 75.152 60.8257C75.152 51.35 67.4705 43.6685 57.9948 43.6685C48.5191 43.6685 40.8375 51.35 40.8375 60.8257C40.8375 70.3014 48.5191 77.983 57.9948 77.983ZM51 83.5061C36.6406 83.5061 25 95.1467 25 109.506V111.222H90.9895V109.506C90.9895 95.1467 79.3489 83.5061 64.9895 83.5061H51Z"/>
</mask>
<path fill-rule="evenodd" clip-rule="evenodd" d="M57.9948 77.983C67.4705 77.983 75.152 70.3014 75.152 60.8257C75.152 51.35 67.4705 43.6685 57.9948 43.6685C48.5191 43.6685 40.8375 51.35 40.8375 60.8257C40.8375 70.3014 48.5191 77.983 57.9948 77.983ZM51 83.5061C36.6406 83.5061 25 95.1467 25 109.506V111.222H90.9895V109.506C90.9895 95.1467 79.3489 83.5061 64.9895 83.5061H51Z" fill="#003974"/>
<path d="M25 111.222H20V116.222H25V111.222ZM90.9895 111.222V116.222H95.9895V111.222H90.9895ZM70.152 60.8257C70.152 67.54 64.709 72.983 57.9948 72.983V82.983C70.2319 82.983 80.152 73.0628 80.152 60.8257H70.152ZM57.9948 48.6685C64.709 48.6685 70.152 54.1115 70.152 60.8257H80.152C80.152 48.5886 70.2319 38.6685 57.9948 38.6685V48.6685ZM45.8375 60.8257C45.8375 54.1115 51.2805 48.6685 57.9948 48.6685V38.6685C45.7576 38.6685 35.8375 48.5886 35.8375 60.8257H45.8375ZM57.9948 72.983C51.2805 72.983 45.8375 67.54 45.8375 60.8257H35.8375C35.8375 73.0628 45.7576 82.983 57.9948 82.983V72.983ZM30 109.506C30 97.9082 39.402 88.5061 51 88.5061V78.5061C33.8792 78.5061 20 92.3853 20 109.506H30ZM30 111.222V109.506H20V111.222H30ZM90.9895 106.222H25V116.222H90.9895V106.222ZM85.9895 109.506V111.222H95.9895V109.506H85.9895ZM64.9895 88.5061C76.5875 88.5061 85.9895 97.9082 85.9895 109.506H95.9895C95.9895 92.3853 82.1103 78.5061 64.9895 78.5061V88.5061ZM51 88.5061H64.9895V78.5061H51V88.5061Z" fill="white" mask="url(#path-3-outside-1_1206:1721)"/>
</svg>
